<svg width="79" height="30" viewBox="0 0 79 30" fill="none" xmlns="http://www.w3.org/2000/svg">
<path d="M7.632 24.216C6.272 24.216 5.056 24.04 3.984 23.688C2.912 23.336 1.976 22.832 1.176 22.176L1.896 20.592C2.456 21.008 3.016 21.36 3.576 21.648C4.152 21.92 4.768 22.128 5.424 22.272C6.08 22.4 6.816 22.464 7.632 22.464C9.056 22.464 10.112 22.2 10.8 21.672C11.488 21.144 11.832 20.44 11.832 19.56C11.832 18.808 11.592 18.232 11.112 17.832C10.632 17.432 9.792 17.112 8.592 16.872L6.072 16.368C4.52 16.048 3.36 15.528 2.592 14.808C1.84 14.088 1.464 13.112 1.464 11.88C1.464 10.872 1.72 9.992 2.232 9.24C2.76 8.488 3.496 7.904 4.44 7.488C5.384 7.072 6.48 6.864 7.728 6.864C8.928 6.864 10.024 7.048 11.016 7.416C12.008 7.768 12.856 8.288 13.56 8.976L12.864 10.512C12.112 9.84 11.32 9.36 10.488 9.072C9.672 8.768 8.744 8.616 7.704 8.616C6.392 8.616 5.352 8.904 4.584 9.48C3.832 10.04 3.456 10.808 3.456 11.784C3.456 12.568 3.696 13.184 4.176 13.632C4.656 14.064 5.448 14.392 6.552 14.616L9.096 15.12C10.728 15.456 11.928 15.96 12.696 16.632C13.464 17.304 13.848 18.248 13.848 19.464C13.848 20.392 13.592 21.216 13.08 21.936C12.584 22.656 11.872 23.216 10.944 23.616C10.016 24.016 8.912 24.216 7.632 24.216ZM20.8176 24V8.76H14.8416V7.08H28.7616V8.76H22.8096V24H20.8176ZM49.9714 24V7.08H56.8834C58.6594 7.08 60.0354 7.504 61.0114 8.352C61.9874 9.184 62.4754 10.352 62.4754 11.856C62.4754 12.848 62.2514 13.696 61.8034 14.4C61.3714 15.088 60.7554 15.616 59.9554 15.984C59.1714 16.352 58.2514 16.536 57.1954 16.536L57.6274 16.224H58.1074C58.7634 16.224 59.3474 16.384 59.8594 16.704C60.3874 17.024 60.8034 17.56 61.1074 18.312L63.5074 24H61.3234L59.0194 18.408C58.7474 17.688 58.3394 17.224 57.7954 17.016C57.2514 16.792 56.5714 16.68 55.7554 16.68H51.9634V24H49.9714ZM51.9634 15.12H56.5954C57.8754 15.12 58.8434 14.848 59.4994 14.304C60.1714 13.744 60.5074 12.944 60.5074 11.904C60.5074 10.864 60.1714 10.072 59.4994 9.528C58.8434 8.984 57.8754 8.712 56.5954 8.712H51.9634V15.12ZM66.5886 24V7.08H77.3886V8.712H68.5326V14.592H76.8606V16.248H68.5326V22.344H77.3886V24H66.5886Z" fill="black"/>
<path d="M32.9688 7.1875C31.9929 7.1875 31.1875 7.99067 31.1875 8.96643V12.5312C31.1875 13.4953 31.6588 14.347 32.375 14.89V22.0311C32.375 23.0076 33.1797 23.8123 34.1562 23.8123H44.8438C45.8203 23.8123 46.625 23.0076 46.625 22.0311V14.89C47.3412 14.347 47.8125 13.4953 47.8125 12.5312V8.96643C47.8125 7.99067 47.0071 7.1875 46.0312 7.1875H32.9688V7.1875ZM32.9688 8.375H46.0312C46.3711 8.375 46.625 8.62923 46.625 8.96643V12.5312C46.625 13.5283 45.8408 14.3125 44.8438 14.3125H44.25C43.2529 14.3125 42.4688 13.5283 42.4688 12.5312C42.4577 11.7507 41.2923 11.7507 41.2812 12.5312C41.2812 13.5283 40.4971 14.3125 39.5 14.3125C38.5029 14.3125 37.7188 13.5283 37.7188 12.5312C37.7077 11.7507 36.5423 11.7507 36.5312 12.5312C36.5312 13.5283 35.7471 14.3125 34.75 14.3125H34.1562C33.1592 14.3125 32.375 13.5283 32.375 12.5312V8.96643C32.375 8.62923 32.6289 8.375 32.9688 8.375V8.375ZM37.125 14.2186C37.6456 14.9481 38.4489 15.4583 39.3991 15.4931C39.4015 15.4931 39.4037 15.4941 39.4061 15.4942C39.4372 15.4986 39.4686 15.5005 39.5 15.5C39.5276 15.5 39.5551 15.4981 39.5823 15.4942C40.5407 15.4656 41.351 14.9529 41.875 14.2186C42.4142 14.9743 43.255 15.5 44.25 15.5H44.8437C45.0469 15.5 45.2456 15.479 45.4375 15.4397V22.0315C45.4375 22.3708 45.183 22.6253 44.8437 22.6253H41.875V19.6565C41.875 18.68 41.0703 17.8753 40.0937 17.8753H38.9062C37.9297 17.8753 37.125 18.68 37.125 19.6565V22.6253H34.1562C33.817 22.6253 33.5625 22.3708 33.5625 22.0315V15.4397C33.7544 15.479 33.9531 15.5 34.1562 15.5H34.75C35.7449 15.5 36.5857 14.9742 37.125 14.2186L37.125 14.2186ZM38.9062 19.0625H40.0938C40.433 19.0625 40.6875 19.317 40.6875 19.6562V22.625H38.3125V19.6562C38.3125 19.317 38.567 19.0625 38.9062 19.0625Z" fill="#246586"/>
</svg>
